<svg width="18" height="15" viewBox="0 0 18 15" fill="none" xmlns="http://www.w3.org/2000/svg">
<g filter="url(#filter0_di_2_244)">
<path d="M3.90604 7.97317V10.8703L8.99695 13.637L14.0879 10.8703V7.97317L8.99695 10.7399L3.90604 7.97317ZM8.99695 0.600006L0.996948 4.94569L8.99695 9.29136L15.5424 5.73515V10.7399H16.9969V4.94569L8.99695 0.600006Z" fill="#1B1B1B"/>
<path fill-rule="evenodd" clip-rule="evenodd" d="M9.03308 4.40166L5.57867 4.40166C5.56159 4.40166 5.54489 4.39875 5.53069 4.39329C5.51649 4.38783 5.50541 4.38007 5.49888 4.37099C5.49234 4.36191 5.49064 4.35192 5.49397 4.34228C5.49731 4.33264 5.50554 4.32379 5.51762 4.31684L7.0937 3.40992C7.10989 3.4006 7.11899 3.38797 7.11899 3.37479C7.11899 3.36161 7.10989 3.34898 7.0937 3.33966L6.11842 2.77846C6.10223 2.76914 6.08027 2.76391 6.05738 2.76391C6.03448 2.76391 6.01252 2.76914 5.99633 2.77846L2.46077 4.81292C2.44458 4.82224 2.43548 4.83488 2.43548 4.84805C2.43548 4.86123 2.44457 4.87386 2.46077 4.88318L5.99633 6.91764C6.01252 6.92696 6.03448 6.9322 6.05737 6.9322C6.08027 6.9322 6.10223 6.92696 6.11842 6.91764L7.0937 6.35644C7.10989 6.34713 7.11898 6.33449 7.11898 6.32131C7.11898 6.30814 7.10989 6.2955 7.0937 6.28618L5.51762 5.37927C5.50554 5.37232 5.49731 5.36347 5.49397 5.35383C5.49064 5.34419 5.49234 5.33419 5.49888 5.32511C5.50542 5.31603 5.51649 5.30827 5.53069 5.30281C5.54489 5.29735 5.56159 5.29444 5.57867 5.29444L8.61319 5.29444C9.14071 5.29457 9.64654 5.41522 10.0195 5.62988L11.2814 6.35601C11.2894 6.36063 11.299 6.36429 11.3094 6.36679C11.3199 6.36928 11.3311 6.37056 11.3425 6.37056C11.3538 6.37056 11.365 6.36928 11.3755 6.36678C11.386 6.36429 11.3955 6.36063 11.4035 6.35601L12.381 5.79353C12.389 5.78891 12.3954 5.78344 12.3997 5.77741C12.4041 5.77138 12.4063 5.76492 12.4063 5.7584C12.4063 5.75187 12.4041 5.74542 12.3998 5.73939C12.3954 5.73336 12.389 5.72788 12.381 5.72327L10.8228 4.82663C10.5877 4.69157 10.3086 4.58452 10.0015 4.5116C9.69439 4.43867 9.36531 4.40132 9.03308 4.40166V4.40166Z" fill="#D3FA3A"/>
</g>
<defs>
<filter id="filter0_di_2_244" x="0.896948" y="0.500006" width="16.8" height="13.837" filterUnits="userSpaceOnUse" color-interpolation-filters="sRGB">
<feFlood flood-opacity="0" result="BackgroundImageFix"/>
<feColorMatrix in="SourceAlpha" type="matrix" values="0 0 0 0 0 0 0 0 0 0 0 0 0 0 0 0 0 0 127 0" result="hardAlpha"/>
<feOffset dx="0.3" dy="0.3"/>
<feGaussianBlur stdDeviation="0.2"/>
<feComposite in2="hardAlpha" operator="out"/>
<feColorMatrix type="matrix" values="0 0 0 0 0.105882 0 0 0 0 0.105882 0 0 0 0 0.105882 0 0 0 0.25 0"/>
<feBlend mode="normal" in2="BackgroundImageFix" result="effect1_dropShadow_2_244"/>
<feBlend mode="normal" in="SourceGraphic" in2="effect1_dropShadow_2_244" result="shape"/>
<feColorMatrix in="SourceAlpha" type="matrix" values="0 0 0 0 0 0 0 0 0 0 0 0 0 0 0 0 0 0 127 0" result="hardAlpha"/>
<feOffset dx="0.5" dy="0.5"/>
<feGaussianBlur stdDeviation="0.4"/>
<feComposite in2="hardAlpha" operator="arithmetic" k2="-1" k3="1"/>
<feColorMatrix type="matrix" values="0 0 0 0 0.976471 0 0 0 0 0.976471 0 0 0 0 0.976471 0 0 0 0.65 0"/>
<feBlend mode="normal" in2="shape" result="effect2_innerShadow_2_244"/>
</filter>
</defs>
</svg>
