<svg width="56" height="130" viewBox="0 0 56 130" fill="none" xmlns="http://www.w3.org/2000/svg">
<path d="M38.7875 0.579819C38.0029 0.313742 37.1513 0.734035 36.8852 1.51857L32.5491 14.3033C32.283 15.0878 32.7033 15.9395 33.4879 16.2056C34.2724 16.4717 35.1241 16.0514 35.3902 15.2668L39.2444 3.90266L50.6086 7.75693C51.3931 8.023 52.2448 7.60272 52.5109 6.81818C52.777 6.03365 52.3567 5.18197 51.5722 4.91588L38.7875 0.579819ZM0.5 128.5C0.676953 129.99 0.67774 129.989 0.678725 129.989C0.679318 129.989 0.680503 129.989 0.681688 129.989C0.68406 129.989 0.687223 129.988 0.691171 129.988C0.699068 129.987 0.710106 129.985 0.724236 129.984C0.752495 129.98 0.793125 129.975 0.845732 129.968C0.950943 129.954 1.10408 129.933 1.302 129.904C1.69782 129.847 2.27293 129.757 3.00217 129.628C4.46027 129.369 6.5367 128.953 9.02951 128.318C14.0094 127.05 20.6805 124.903 27.4114 121.384C40.8772 114.346 54.7633 101.698 55.4992 79.5498L52.5008 79.4502C51.8142 100.115 38.9503 111.968 26.0217 118.726C19.5554 122.106 13.1183 124.181 8.28916 125.411C5.87747 126.025 3.87424 126.426 2.4788 126.674C1.78126 126.797 1.23614 126.882 0.8684 126.936C0.684547 126.963 0.545086 126.982 0.453139 126.994C0.407167 127 0.373079 127.004 0.351266 127.007C0.340359 127.008 0.332522 127.009 0.327802 127.01C0.325442 127.01 0.323862 127.01 0.323068 127.01C0.32267 127.011 0.322666 127.011 0.322466 127.011C0.322658 127.011 0.323047 127.01 0.5 128.5ZM55.4992 79.5498C56.2172 57.9379 52.2569 38.3985 48.126 24.2741C46.0594 17.2082 43.9472 11.4874 42.3489 7.52764C41.5497 5.54749 40.8788 4.00694 40.4059 2.95793C40.1694 2.43342 39.9825 2.03173 39.8537 1.75935C39.7893 1.62316 39.7395 1.5193 39.7054 1.44855C39.6883 1.4132 39.6751 1.3861 39.666 1.3674C39.6614 1.35806 39.6578 1.3508 39.6553 1.34566C39.654 1.34309 39.653 1.34104 39.6523 1.33953C39.6519 1.33877 39.6515 1.33802 39.6514 1.33764C39.6511 1.33704 39.6508 1.33656 38.3057 2.00035C36.9606 2.66413 36.9605 2.66392 36.9604 2.66385C36.9605 2.664 36.9605 2.66405 36.9607 2.66435C36.961 2.66495 36.9615 2.66607 36.9623 2.66771C36.9639 2.67101 36.9666 2.67641 36.9702 2.6839C36.9776 2.69886 36.9889 2.7222 37.0042 2.75376C37.0347 2.81689 37.0808 2.91303 37.1414 3.04134C37.2627 3.29797 37.4421 3.6833 37.6709 4.19086C38.1286 5.206 38.7837 6.70981 39.567 8.65046C41.1337 12.5323 43.2118 18.1589 45.2466 25.1162C49.3184 39.0384 53.2053 58.2488 52.5008 79.4502L55.4992 79.5498Z" fill="#BEBEBE"/>
</svg>
