<svg width="18" height="18" viewBox="0 0 18 18" fill="none" xmlns="http://www.w3.org/2000/svg">
<path fill-rule="evenodd" clip-rule="evenodd" d="M9.73859 0.479824C9.31542 0.112195 8.68616 0.112194 8.26299 0.479824L6.67939 1.85556L4.58959 1.67338C4.03114 1.6247 3.52207 1.99457 3.3958 2.54072L2.92328 4.58454L1.12551 5.6655C0.645107 5.95436 0.450656 6.55282 0.669524 7.06889L1.48857 9.00011L0.669524 10.9313C0.450656 11.4474 0.645106 12.0459 1.12551 12.3347L2.92328 13.4157L3.3958 15.4595C3.52207 16.0056 4.03114 16.3755 4.58959 16.3268L6.67939 16.1447L8.26299 17.5204C8.68616 17.888 9.31542 17.888 9.73859 17.5204L11.3222 16.1447L13.412 16.3268C13.9704 16.3755 14.4795 16.0056 14.6058 15.4595L15.0783 13.4157L16.8761 12.3347C17.3565 12.0459 17.5509 11.4474 17.3321 10.9313L16.513 9.00011L17.3321 7.06889C17.5509 6.55282 17.3565 5.95436 16.8761 5.6655L15.0783 4.58454L14.6058 2.54072C14.4795 1.99457 13.9704 1.6247 13.412 1.67338L11.3222 1.85556L9.73859 0.479824ZM7.45915 2.83397L9.00079 1.49468L10.5424 2.83397C10.7726 3.03396 11.0742 3.13193 11.3779 3.10544L13.4124 2.92809L13.8724 4.91776C13.9411 5.21485 14.1274 5.47134 14.3887 5.62848L16.1389 6.6808L15.3415 8.56086C15.2225 8.84159 15.2225 9.15863 15.3415 9.43936L16.1389 11.3194L14.3887 12.3717C14.1274 12.5289 13.9411 12.7854 13.8724 13.0825L13.4124 15.0721L11.3779 14.8948C11.0742 14.8683 10.7726 14.9663 10.5424 15.1662L9.00079 16.5055L7.45915 15.1662C7.22895 14.9663 6.92742 14.8683 6.62364 14.8948L4.58921 15.0721L4.12921 13.0825C4.06052 12.7854 3.87417 12.5289 3.61284 12.3717L1.86271 11.3194L2.66005 9.43936C2.77911 9.15863 2.77911 8.84159 2.66005 8.56086L1.86271 6.6808L3.61284 5.62848C3.87417 5.47134 4.06052 5.21485 4.12921 4.91776L4.58921 2.92809L6.62364 3.10544C6.92743 3.13193 7.22895 3.03396 7.45915 2.83397ZM6.94273 9.3915C6.69865 9.14742 6.30292 9.14742 6.05884 9.3915C5.81477 9.63558 5.81477 10.0313 6.05884 10.2754L7.72551 11.942C7.96959 12.1861 8.36532 12.1861 8.6094 11.942L12.7761 7.77538C13.0201 7.5313 13.0201 7.13558 12.7761 6.8915C12.532 6.64742 12.1363 6.64742 11.8922 6.8915L8.16745 10.6162L6.94273 9.3915Z" fill="#1B1B1B"/>
</svg>
