<svg width="24" height="14" viewBox="0 0 24 14" fill="none" xmlns="http://www.w3.org/2000/svg">
<path fill-rule="evenodd" clip-rule="evenodd" d="M3 1.75C2.30964 1.75 1.75 2.30964 1.75 3V11C1.75 11.6904 2.30964 12.25 3 12.25H18C18.6904 12.25 19.25 11.6904 19.25 11V3C19.25 2.30964 18.6904 1.75 18 1.75H3ZM0.25 3C0.25 1.48122 1.48122 0.25 3 0.25H18C19.5188 0.25 20.75 1.48122 20.75 3V11C20.75 12.5188 19.5188 13.75 18 13.75H3C1.48122 13.75 0.25 12.5188 0.25 11V3ZM23 4.25C23.4142 4.25 23.75 4.58579 23.75 5V9C23.75 9.41421 23.4142 9.75 23 9.75C22.5858 9.75 22.25 9.41421 22.25 9V5C22.25 4.58579 22.5858 4.25 23 4.25ZM4.75 9.25V4.75H6.25V9.25H4.75ZM4.6 3.25C3.85442 3.25 3.25 3.85442 3.25 4.6V9.4C3.25 10.1456 3.85442 10.75 4.6 10.75H6.4C7.14558 10.75 7.75 10.1456 7.75 9.4V4.6C7.75 3.85441 7.14558 3.25 6.4 3.25H4.6Z" fill="white"/>
</svg>
