<svg width="22" height="22" viewBox="0 0 22 22" fill="none" xmlns="http://www.w3.org/2000/svg">
<path fill-rule="evenodd" clip-rule="evenodd" d="M1.75 11C1.75 5.89137 5.89137 1.75 11 1.75C16.1086 1.75 20.25 5.89137 20.25 11C20.25 16.1086 16.1086 20.25 11 20.25C9.31393 20.25 7.73533 19.7996 6.37554 19.013C6.2206 18.9233 6.0387 18.8921 5.86272 18.9248L2.43742 19.5626L3.07515 16.1373C3.10792 15.9613 3.07666 15.7794 2.98703 15.6245C2.20043 14.2647 1.75 12.6861 1.75 11ZM11 0.25C5.06294 0.25 0.25 5.06294 0.25 11C0.25 12.8563 0.721126 14.6046 1.55076 16.1298L0.762671 20.3627C0.717419 20.6058 0.794853 20.8555 0.96967 21.0303C1.14449 21.2051 1.39423 21.2826 1.63728 21.2373L5.87016 20.4492C7.39536 21.2789 9.14369 21.75 11 21.75C16.9371 21.75 21.75 16.9371 21.75 11C21.75 5.06294 16.9371 0.25 11 0.25ZM6.25 9C6.25 8.58579 6.58579 8.25 7 8.25L15 8.25C15.4142 8.25 15.75 8.58579 15.75 9C15.75 9.41421 15.4142 9.75 15 9.75L7 9.75C6.58579 9.75 6.25 9.41421 6.25 9ZM6.25 13C6.25 12.5858 6.58579 12.25 7 12.25H11C11.4142 12.25 11.75 12.5858 11.75 13C11.75 13.4142 11.4142 13.75 11 13.75H7C6.58579 13.75 6.25 13.4142 6.25 13Z" fill="#1B1B1B"/>
</svg>
