<svg width="20" height="20" viewBox="0 0 20 20" fill="none" xmlns="http://www.w3.org/2000/svg">
<path fill-rule="evenodd" clip-rule="evenodd" d="M4.5417 3.41666C4.26556 3.62377 3.87381 3.56781 3.6667 3.29166C3.4596 3.01552 3.51556 2.62377 3.7917 2.41666L5.45837 1.16666C5.73451 0.959556 6.12626 1.01552 6.33337 1.29166C6.54048 1.56781 6.48451 1.95956 6.20837 2.16666L4.5417 3.41666ZM10 11.4583C9.65482 11.4583 9.375 11.1785 9.375 10.8333V6.66667C9.375 6.3215 9.65482 6.04167 10 6.04167C10.3452 6.04167 10.625 6.3215 10.625 6.66667V10.2083H14.1667C14.5118 10.2083 14.7917 10.4882 14.7917 10.8333C14.7917 11.1785 14.5118 11.4583 14.1667 11.4583H10ZM16.3333 3.29166C16.1262 3.56781 15.7344 3.62377 15.4583 3.41666L13.7916 2.16666C13.5155 1.95956 13.4595 1.56781 13.6666 1.29166C13.8737 1.01552 14.2655 0.959556 14.5416 1.16666L16.2083 2.41666C16.4844 2.62377 16.5404 3.01552 16.3333 3.29166ZM3.125 10.8333C3.125 7.03638 6.20304 3.95834 10 3.95834C13.797 3.95834 16.875 7.03638 16.875 10.8333C16.875 14.6303 13.797 17.7083 10 17.7083C6.20304 17.7083 3.125 14.6303 3.125 10.8333ZM10 2.70834C5.51269 2.70834 1.875 6.34603 1.875 10.8333C1.875 15.3207 5.51269 18.9583 10 18.9583C14.4873 18.9583 18.125 15.3207 18.125 10.8333C18.125 6.34603 14.4873 2.70834 10 2.70834Z" fill="#767676"/>
</svg>
