<svg width="20" height="20" viewBox="0 0 20 20" fill="none" xmlns="http://www.w3.org/2000/svg">
<path fill-rule="evenodd" clip-rule="evenodd" d="M5.20833 1.66667C5.20833 1.32149 5.48816 1.04167 5.83333 1.04167H13.75C13.9158 1.04167 14.0747 1.10752 14.1919 1.22473L17.9419 4.97473C18.0592 5.09194 18.125 5.25091 18.125 5.41667V15.8333C18.125 16.1785 17.8452 16.4583 17.5 16.4583C17.1548 16.4583 16.875 16.1785 16.875 15.8333V5.67556L13.4911 2.29167L5.83333 2.29167C5.48816 2.29167 5.20833 2.01185 5.20833 1.66667ZM5.83333 7.70834C5.48816 7.70834 5.20833 7.98816 5.20833 8.33334C5.20833 8.67852 5.48816 8.95834 5.83333 8.95834H8.33333C8.67851 8.95834 8.95833 8.67852 8.95833 8.33334C8.95833 7.98816 8.67851 7.70834 8.33333 7.70834H5.83333ZM5.20833 11.6667C5.20833 11.3215 5.48816 11.0417 5.83333 11.0417H6.66667C7.01184 11.0417 7.29167 11.3215 7.29167 11.6667C7.29167 12.0118 7.01184 12.2917 6.66667 12.2917H5.83333C5.48816 12.2917 5.20833 12.0118 5.20833 11.6667ZM5.20833 15C5.20833 14.6548 5.48816 14.375 5.83333 14.375H11.6667C12.0118 14.375 12.2917 14.6548 12.2917 15C12.2917 15.3452 12.0118 15.625 11.6667 15.625H5.83333C5.48816 15.625 5.20833 15.3452 5.20833 15ZM3.125 5.41667C3.125 5.07149 3.40482 4.79167 3.75 4.79167H11.0417V7.00001C11.0417 7.62133 11.5453 8.125 12.1667 8.125H14.375V17.0833C14.375 17.4285 14.0952 17.7083 13.75 17.7083H3.75C3.40482 17.7083 3.125 17.4285 3.125 17.0833V5.41667ZM15.6241 7.24595C15.6247 7.26075 15.625 7.27558 15.625 7.29045V17.0833C15.625 18.1189 14.7855 18.9583 13.75 18.9583H3.75C2.71447 18.9583 1.875 18.1189 1.875 17.0833V5.41667C1.875 4.38114 2.71447 3.54167 3.75 3.54167H11.8762C11.8911 3.54167 11.9059 3.54197 11.9207 3.54255C11.9342 3.54197 11.9477 3.54167 11.9613 3.54167C12.2052 3.54167 12.4391 3.63856 12.6116 3.81102L12.6717 3.87118L15.2955 6.49495C15.2957 6.49516 15.2959 6.49536 15.2961 6.49557L15.3556 6.5551C15.5281 6.72757 15.625 6.96148 15.625 7.20538C15.625 7.21897 15.6247 7.2325 15.6241 7.24595Z" fill="#767676"/>
</svg>
