<svg width="20" height="20" viewBox="0 0 20 20" fill="none" xmlns="http://www.w3.org/2000/svg">
<path fill-rule="evenodd" clip-rule="evenodd" d="M2.5 5.20833C2.15482 5.20833 1.875 5.48816 1.875 5.83333C1.875 6.17851 2.15482 6.45833 2.5 6.45833H17.5C17.8452 6.45833 18.125 6.17851 18.125 5.83333C18.125 5.48816 17.8452 5.20833 17.5 5.20833H13.9583V3C13.9583 2.37868 13.4547 1.875 12.8333 1.875H7.16667C6.54535 1.875 6.04167 2.37868 6.04167 3V5.20833H2.5ZM12.7083 3.125V5.20833H7.29167V3.125H12.7083ZM4.79167 9.16667C4.79167 8.82149 4.51184 8.54167 4.16667 8.54167C3.82149 8.54167 3.54167 8.82149 3.54167 9.16667V17C3.54167 17.6213 4.04535 18.125 4.66667 18.125H15.3333C15.9547 18.125 16.4583 17.6213 16.4583 17V9.16667C16.4583 8.82149 16.1785 8.54167 15.8333 8.54167C15.4882 8.54167 15.2083 8.82149 15.2083 9.16667V16.875H4.79167V9.16667ZM8.95833 9.16667C8.95833 8.82149 8.67851 8.54167 8.33333 8.54167C7.98816 8.54167 7.70833 8.82149 7.70833 9.16667V14.1667C7.70833 14.5118 7.98816 14.7917 8.33333 14.7917C8.67851 14.7917 8.95833 14.5118 8.95833 14.1667V9.16667ZM11.6667 8.54167C12.0118 8.54167 12.2917 8.82149 12.2917 9.16667V14.1667C12.2917 14.5118 12.0118 14.7917 11.6667 14.7917C11.3215 14.7917 11.0417 14.5118 11.0417 14.1667V9.16667C11.0417 8.82149 11.3215 8.54167 11.6667 8.54167Z" fill="white"/>
</svg>
