<svg width="20" height="20" viewBox="0 0 20 20" fill="none" xmlns="http://www.w3.org/2000/svg">
<path fill-rule="evenodd" clip-rule="evenodd" d="M10 2.29166C5.74283 2.29166 2.29169 5.74279 2.29169 9.99999C2.29169 13.1447 4.17486 15.8497 6.87502 17.0486V5.83044C6.87502 4.98267 7.77714 4.43952 8.52639 4.83618L14.0845 7.77871C14.8626 8.19063 14.8874 9.29628 14.1285 9.74265L8.12502 13.2741V17.4787C8.72524 17.6287 9.35333 17.7083 10 17.7083C14.2572 17.7083 17.7084 14.2572 17.7084 9.99999C17.7084 5.74279 14.2572 2.29166 10 2.29166ZM8.12502 11.8239L13.3018 8.77872L8.12502 6.03806V11.8239ZM1.04169 9.99999C1.04169 5.05244 5.05247 1.04166 10 1.04166C14.9476 1.04166 18.9584 5.05244 18.9584 9.99999C18.9584 14.9475 14.9476 18.9583 10 18.9583C5.05247 18.9583 1.04169 14.9475 1.04169 9.99999Z" fill="#767676"/>
</svg>
