<svg width="16" height="16" viewBox="0 0 16 16" fill="none" xmlns="http://www.w3.org/2000/svg">
<path fill-rule="evenodd" clip-rule="evenodd" d="M8.00001 1.83334C4.59425 1.83334 1.83334 4.59425 1.83334 8.00001C1.83334 10.5158 3.33988 12.6798 5.50001 13.6389V4.66437C5.50001 3.98615 6.22171 3.55163 6.82111 3.86896L11.2676 6.22299C11.89 6.55252 11.9099 7.43704 11.3028 7.79414L6.50001 10.6193V13.983C6.98019 14.103 7.48266 14.1667 8.00001 14.1667C11.4058 14.1667 14.1667 11.4058 14.1667 8.00001C14.1667 4.59425 11.4058 1.83334 8.00001 1.83334ZM6.50001 9.45914L10.6415 7.02299L6.50001 4.83046V9.45914ZM0.833344 8.00001C0.833344 4.04197 4.04197 0.833344 8.00001 0.833344C11.9581 0.833344 15.1667 4.04197 15.1667 8.00001C15.1667 11.9581 11.9581 15.1667 8.00001 15.1667C4.04197 15.1667 0.833344 11.9581 0.833344 8.00001Z" fill="#3B3B3B"/>
</svg>
