<svg width="16" height="16" viewBox="0 0 16 16" fill="none" xmlns="http://www.w3.org/2000/svg">
<path fill-rule="evenodd" clip-rule="evenodd" d="M8 1.14729C4.21536 1.14729 1.14729 4.21535 1.14729 8C1.14729 10.7957 2.82143 13.2004 5.22188 14.2662V4.29327C5.22188 3.5396 6.02386 3.05674 6.68995 3.40937L11.6311 6.02528C12.3228 6.39148 12.3448 7.3744 11.6702 7.77122L6.33313 10.9107V14.6486C6.86672 14.7819 7.42509 14.8527 8 14.8527C11.7846 14.8527 14.8527 11.7846 14.8527 8C14.8527 4.21535 11.7846 1.14729 8 1.14729ZM6.33313 9.62145L10.9353 6.91429L6.33313 4.47784V9.62145ZM0.0360432 8C0.0360432 3.60163 3.60163 0.0360413 8 0.0360413C12.3984 0.0360413 15.964 3.60163 15.964 8C15.964 12.3984 12.3984 15.964 8 15.964C3.60163 15.964 0.0360432 12.3984 0.0360432 8Z" fill="#3B3B3B"/>
</svg>
