<svg width="20" height="20" viewBox="0 0 20 20" fill="none" xmlns="http://www.w3.org/2000/svg">
<path fill-rule="evenodd" clip-rule="evenodd" d="M12.9838 2.058L17.1086 6.18279C17.3527 6.42686 17.3527 6.82259 17.1086 7.06667L10.0794 14.0959C9.80593 14.3694 9.435 14.523 9.04823 14.523L5.26862 14.523C4.92344 14.523 4.64362 14.2432 4.64362 13.898L4.64362 10.1184C4.64362 9.73161 4.79726 9.36068 5.07075 9.08719L12.0999 2.058C12.344 1.81392 12.7397 1.81392 12.9838 2.058ZM14.3097 8.09787L15.7828 6.62473L12.5419 3.38382L11.0687 4.85696L14.3097 8.09787ZM13.4258 8.98175L10.1849 5.74084L5.95464 9.97107C5.91557 10.0101 5.89362 10.0631 5.89362 10.1184L5.89362 13.273L9.04823 13.273C9.10348 13.273 9.15647 13.251 9.19554 13.212L13.4258 8.98175ZM2.5 16.875C2.15482 16.875 1.875 17.1548 1.875 17.5C1.875 17.8452 2.15482 18.125 2.5 18.125H17.5C17.8452 18.125 18.125 17.8452 18.125 17.5C18.125 17.1548 17.8452 16.875 17.5 16.875H2.5Z" fill="white"/>
</svg>
