<svg width="18" height="18" viewBox="0 0 18 18" fill="none" xmlns="http://www.w3.org/2000/svg">
<path fill-rule="evenodd" clip-rule="evenodd" d="M11.9838 1.05806L16.1086 5.18285C16.3527 5.42693 16.3527 5.82265 16.1086 6.06673L9.07943 13.0959C8.80593 13.3694 8.435 13.5231 8.04823 13.5231L4.26862 13.5231C3.92344 13.5231 3.64362 13.2432 3.64362 12.8981L3.64362 9.11845C3.64362 8.73167 3.79726 8.36074 4.07075 8.08725L11.0999 1.05806C11.344 0.813981 11.7397 0.813981 11.9838 1.05806ZM13.3097 7.09793L14.7828 5.62479L11.5419 2.38388L10.0687 3.85702L13.3097 7.09793ZM12.4258 7.98181L9.18486 4.74091L4.95464 8.97113C4.91557 9.0102 4.89362 9.06319 4.89362 9.11845L4.89362 12.2731L8.04823 12.2731C8.10348 12.2731 8.15647 12.2511 8.19554 12.212L12.4258 7.98181ZM1.5 15.875C1.15482 15.875 0.875 16.1549 0.875 16.5C0.875 16.8452 1.15482 17.125 1.5 17.125H16.5C16.8452 17.125 17.125 16.8452 17.125 16.5C17.125 16.1549 16.8452 15.875 16.5 15.875H1.5Z" fill="#706E64"/>
</svg>
