<svg width="20" height="14" viewBox="0 0 20 14" fill="none" xmlns="http://www.w3.org/2000/svg">
<path fill-rule="evenodd" clip-rule="evenodd" d="M5.25485 10.515C3.94562 9.56324 2.80026 8.32038 1.92845 7.04691C4.17106 4.30554 6.57957 1.75 10 1.75C13.4205 1.75 15.829 4.30551 18.0716 7.0469C17.1998 8.32038 16.0544 9.56324 14.7452 10.515C13.2815 11.579 11.655 12.25 10 12.25C8.34504 12.25 6.71857 11.579 5.25485 10.515ZM10 0.25C5.57988 0.25 2.67148 3.74092 0.416877 6.52834C0.214854 6.7781 0.194331 7.1288 0.365841 7.40042C1.35379 8.96507 2.73681 10.539 4.37286 11.7283C6.00742 12.9165 7.93668 13.75 10 13.75C12.0634 13.75 13.9926 12.9165 15.6272 11.7283C17.2632 10.539 18.6462 8.96507 19.6342 7.40042C19.8057 7.1288 19.7852 6.77811 19.5831 6.52835C17.3286 3.74087 14.4202 0.25 10 0.25ZM8.75 7C8.75 6.30964 9.30964 5.75 10 5.75C10.6904 5.75 11.25 6.30964 11.25 7C11.25 7.69036 10.6904 8.25 10 8.25C9.30964 8.25 8.75 7.69036 8.75 7ZM10 4.25C8.48122 4.25 7.25 5.48122 7.25 7C7.25 8.51878 8.48122 9.75 10 9.75C11.5188 9.75 12.75 8.51878 12.75 7C12.75 5.48122 11.5188 4.25 10 4.25Z" fill="#706E64"/>
</svg>
