<svg width="14" height="14" viewBox="0 0 14 14" fill="none" xmlns="http://www.w3.org/2000/svg">
<path fill-rule="evenodd" clip-rule="evenodd" d="M0.264856 0.264868C0.606565 -0.0768413 1.16058 -0.0768412 1.50229 0.264868L6.99999 5.76256L12.4977 0.264868C12.8394 -0.0768409 13.3934 -0.0768413 13.7351 0.264868C14.0768 0.606576 14.0768 1.1606 13.7351 1.5023L8.23742 7L13.7351 12.4977C14.0768 12.8394 14.0768 13.3934 13.7351 13.7351C13.3934 14.0768 12.8394 14.0768 12.4977 13.7351L6.99999 8.23744L1.50229 13.7351C1.16058 14.0768 0.606565 14.0768 0.264856 13.7351C-0.0768528 13.3934 -0.0768527 12.8394 0.264856 12.4977L5.76255 7L0.264856 1.5023C-0.0768527 1.1606 -0.0768528 0.606576 0.264856 0.264868Z" fill="#838383"/>
</svg>
