<svg width="32" height="32" viewBox="0 0 32 32" fill="none" xmlns="http://www.w3.org/2000/svg">
<rect width="32" height="32" rx="4" fill="#1B1B1B"/>
<path fill-rule="evenodd" clip-rule="evenodd" d="M16.9432 7.80747C16.2008 7.48932 15.375 8.03385 15.375 8.84151V17.8907C13.9305 17.9637 12.6105 18.2879 11.5957 18.7953C10.4737 19.3563 9.54169 20.247 9.54169 21.4167C9.54169 22.5864 10.4737 23.477 11.5957 24.0381C12.7552 24.6178 14.3132 24.9583 16 24.9583C17.6868 24.9583 19.2449 24.6178 20.4043 24.0381C21.5264 23.477 22.4584 22.5864 22.4584 21.4167C22.4584 20.247 21.5264 19.3563 20.4043 18.7953C19.3896 18.2879 18.0695 17.9637 16.625 17.8907V16.3945L24.0204 12.8729C24.8943 12.4568 24.8695 11.2045 23.9798 10.8232L16.9432 7.80747ZM15.375 19.1425V20.9999C15.375 21.3451 15.6548 21.6249 16 21.6249C16.3452 21.6249 16.625 21.3451 16.625 20.9999V19.1425C17.9022 19.2144 19.0249 19.5031 19.8453 19.9133C20.8345 20.4079 21.2084 20.9755 21.2084 21.4167C21.2084 21.8578 20.8345 22.4255 19.8453 22.92C18.8935 23.3959 17.5349 23.7083 16 23.7083C14.4652 23.7083 13.1065 23.3959 12.1547 22.92C11.1656 22.4255 10.7917 21.8578 10.7917 21.4167C10.7917 20.9755 11.1656 20.4079 12.1547 19.9133C12.9751 19.5031 14.0978 19.2144 15.375 19.1425ZM23.2334 11.8632L16.625 15.01V9.03107L23.2334 11.8632Z" fill="white"/>
</svg>
