<svg width="19" height="19" viewBox="0 0 29 28" fill="none" xmlns="http://www.w3.org/2000/svg">
<path d="M25.5449 11.7402H24.6155V11.6923H14.2308V16.3077H20.7518C19.8005 18.9944 17.2441 20.9231 14.2308 20.9231C10.4076 20.9231 7.30777 17.8233 7.30777 14C7.30777 10.1767 10.4076 7.07693 14.2308 7.07693C15.9957 7.07693 17.6012 7.7427 18.8237 8.8302L22.0874 5.56655C20.0266 3.64597 17.2701 2.46155 14.2308 2.46155C7.85873 2.46155 2.69238 7.62789 2.69238 14C2.69238 20.3721 7.85873 25.5385 14.2308 25.5385C20.603 25.5385 25.7693 20.3721 25.7693 14C25.7693 13.2264 25.6897 12.4712 25.5449 11.7402Z" fill="#FFC107"/>
<path d="M4.02295 8.62943L7.81391 11.4096C8.83968 8.87001 11.3239 7.07693 14.231 7.07693C15.9958 7.07693 17.6014 7.7427 18.8239 8.8302L22.0876 5.56655C20.0268 3.64597 17.2703 2.46155 14.231 2.46155C9.7991 2.46155 5.95564 4.96366 4.02295 8.62943Z" fill="#FF3D00"/>
<path d="M14.2311 25.5385C17.2115 25.5385 19.9196 24.3979 21.9671 22.5431L18.3959 19.5212C17.2374 20.3987 15.7974 20.9231 14.2311 20.9231C11.2299 20.9231 8.68168 19.0094 7.72168 16.3389L3.95898 19.2379C5.8686 22.9746 9.74668 25.5385 14.2311 25.5385Z" fill="#4CAF50"/>
<path d="M25.545 11.7401H24.6156V11.6923H14.231V16.3076H20.7519C20.295 17.5982 19.4648 18.7111 18.394 19.5217C18.3946 19.5211 18.3952 19.5211 18.3958 19.5205L21.9669 22.5425C21.7142 22.7721 25.7694 19.7692 25.7694 14C25.7694 13.2263 25.6898 12.4711 25.545 11.7401Z" fill="#1976D2"/>
</svg>
