<svg width="20" height="20" viewBox="0 0 20 20" fill="none" xmlns="http://www.w3.org/2000/svg">
<path fill-rule="evenodd" clip-rule="evenodd" d="M2.17418 7.38337C1.87965 7.56337 1.7868 7.94805 1.96679 8.24258C2.14678 8.53712 2.53146 8.62997 2.826 8.44998L10.0001 4.06581L17.1742 8.44998C17.4687 8.62997 17.8534 8.53712 18.0334 8.24258C18.2134 7.94805 18.1205 7.56337 17.826 7.38337L10.326 2.80004C10.1259 2.67778 9.87425 2.67778 9.67418 2.80004L2.17418 7.38337ZM4.79167 10.8333C4.79167 10.4882 4.51184 10.2083 4.16667 10.2083C3.82149 10.2083 3.54167 10.4882 3.54167 10.8333V16.1667C3.54167 16.788 4.04535 17.2917 4.66667 17.2917H15.3333C15.9547 17.2917 16.4583 16.788 16.4583 16.1667V10.8333C16.4583 10.4882 16.1785 10.2083 15.8333 10.2083C15.4882 10.2083 15.2083 10.4882 15.2083 10.8333V16.0417H4.79167V10.8333Z" fill="#767676"/>
</svg>
