<svg width="24" height="24" viewBox="0 0 24 24" fill="none" xmlns="http://www.w3.org/2000/svg">
<path fill-rule="evenodd" clip-rule="evenodd" d="M6.74975 7.9882C6.72859 6.6435 7.16344 5.62227 7.972 4.92398C8.79764 4.21094 10.1113 3.75 11.9998 3.75C13.8883 3.75 15.202 4.21094 16.0277 4.92398C16.8362 5.62227 17.2711 6.6435 17.2499 7.9882C17.2298 9.26723 16.8411 10.0979 15.9695 10.9697L15.927 11.0122L15.927 11.0122C15.4608 11.4782 15.0091 11.9297 14.7041 12.5396C14.3808 13.1862 14.2499 13.9428 14.2498 14.9999C14.2498 15.4142 14.5856 15.75 14.9998 15.75C15.414 15.75 15.7498 15.4143 15.7498 15.0001C15.7499 14.0572 15.8691 13.5638 16.0458 13.2104C16.2315 12.8389 16.5115 12.5491 17.0302 12.0303C18.1583 10.9021 18.7231 9.70654 18.7497 8.0118C18.7766 6.30678 18.2115 4.82802 17.0081 3.78874C15.8218 2.7642 14.1115 2.25 11.9998 2.25C9.88819 2.25 8.1779 2.7642 6.99158 3.78874C5.78818 4.82802 5.22311 6.30678 5.24993 8.0118C5.2766 9.70644 5.84104 10.902 6.96955 12.0304C7.48841 12.5491 7.76839 12.8389 7.95414 13.2104C8.13081 13.5638 8.24991 14.0571 8.24984 14.9999C8.24981 15.4142 8.58557 15.75 8.99979 15.75C9.414 15.75 9.74981 15.4143 9.74984 15.0001C9.74992 13.9429 9.6191 13.1862 9.29578 12.5396C8.99075 11.9295 8.5389 11.478 8.07249 11.012L8.03013 10.9696C7.15834 10.098 6.76988 9.26733 6.74975 7.9882ZM8.24988 18C8.24988 17.5858 8.58566 17.25 8.99988 17.25H14.9999C15.4141 17.25 15.7499 17.5858 15.7499 18C15.7499 18.4142 15.4141 18.75 14.9999 18.75H8.99988C8.58566 18.75 8.24988 18.4142 8.24988 18ZM9.24988 21C9.24988 20.5858 9.58566 20.25 9.99988 20.25H13.9999C14.4141 20.25 14.7499 20.5858 14.7499 21C14.7499 21.4142 14.4141 21.75 13.9999 21.75H9.99988C9.58566 21.75 9.24988 21.4142 9.24988 21Z" fill="black"/>
</svg>
