<svg width="14" height="15" viewBox="0 0 14 15" fill="none" xmlns="http://www.w3.org/2000/svg">
<path fill-rule="evenodd" clip-rule="evenodd" d="M0.646447 0.97979C0.841709 0.784528 1.15829 0.784528 1.35355 0.97979L2.02022 1.64646C2.21548 1.84172 2.21548 2.1583 2.02022 2.35356C1.82496 2.54883 1.50838 2.54883 1.31311 2.35356L0.646447 1.6869C0.451184 1.49163 0.451184 1.17505 0.646447 0.97979ZM13.3536 0.97979C13.1583 0.784528 12.8417 0.784528 12.6464 0.97979L11.9798 1.64646C11.7845 1.84172 11.7845 2.1583 11.9798 2.35356C12.175 2.54883 12.4916 2.54883 12.6869 2.35356L13.3536 1.6869C13.5488 1.49163 13.5488 1.17505 13.3536 0.97979ZM12.6464 11.0202C12.8417 11.2155 13.1583 11.2155 13.3536 11.0202C13.5488 10.825 13.5488 10.5084 13.3536 10.3131L12.6869 9.64646C12.4916 9.45119 12.175 9.45119 11.9798 9.64646C11.7845 9.84172 11.7845 10.1583 11.9798 10.3536L12.6464 11.0202ZM0.646447 11.0202C0.841709 11.2155 1.15829 11.2155 1.35355 11.0202L2.02022 10.3536C2.21548 10.1583 2.21548 9.84172 2.02022 9.64646C1.82496 9.45119 1.50838 9.45119 1.31311 9.64646L0.646447 10.3131C0.451184 10.5084 0.451184 10.825 0.646447 11.0202ZM5 11.5C4.72386 11.5 4.5 11.7239 4.5 12C4.5 12.2762 4.72386 12.5 5 12.5H9C9.27614 12.5 9.5 12.2762 9.5 12C9.5 11.7239 9.27614 11.5 9 11.5H5ZM5.16667 14C5.16667 13.7239 5.39052 13.5 5.66667 13.5H8.33333C8.60948 13.5 8.83333 13.7239 8.83333 14C8.83333 14.2762 8.60948 14.5 8.33333 14.5H5.66667C5.39052 14.5 5.16667 14.2762 5.16667 14ZM3.49983 5.32548C3.48573 4.42901 3.77563 3.74819 4.31467 3.28266C4.86509 2.8073 5.7409 2.50001 6.99989 2.50001C8.25889 2.50001 9.1347 2.8073 9.68512 3.28266C10.2242 3.74819 10.5141 4.42901 10.5 5.32548C10.4865 6.17817 10.2274 6.73197 9.64631 7.31315L9.61798 7.34148C9.30718 7.65214 9.00607 7.95311 8.80276 8.35974C8.64193 8.6814 8.55251 9.04389 8.51746 9.50001H5.4824C5.44741 9.04391 5.35802 8.68141 5.19718 8.35974C4.99383 7.95303 4.6926 7.65203 4.38166 7.34132L4.35342 7.3131C3.77223 6.73199 3.51325 6.17823 3.49983 5.32548ZM6.99989 1.50001C5.59213 1.50001 4.45194 1.84281 3.66105 2.52583C2.85879 3.21869 2.48207 4.20453 2.49996 5.34121C2.51773 6.47097 2.89403 7.26803 3.64637 8.02026C3.99227 8.36611 4.17893 8.55929 4.30276 8.80695C4.42054 9.04251 4.49994 9.37143 4.49989 9.99997C4.49988 10.1326 4.55256 10.2598 4.64633 10.3536C4.7401 10.4473 4.86728 10.5 4.99989 10.5H8.99989C9.27602 10.5 9.49987 10.2762 9.49989 10C9.49994 9.3715 9.57938 9.04255 9.69718 8.80695C9.82103 8.55925 10.0077 8.36606 10.3535 8.0202C11.1055 7.26805 11.4821 6.47104 11.4998 5.34121C11.5177 4.20453 11.141 3.21869 10.3387 2.52583C9.54785 1.84281 8.40766 1.50001 6.99989 1.50001Z" fill="#3B3B3B"/>
</svg>
