<svg
              width="15"
              height="19"
              viewBox="0 0 15 19"
              fill="none"
              xmlns="http://www.w3.org/2000/svg"
            >
              <path
                d="M8.75016 0.55835C8.75016 0.55835 9.36683 2.76668 9.36683 4.55835C9.36683 6.27502 8.24183 7.66668 6.52516 7.66668C4.80016 7.66668 3.50016 6.27502 3.50016 4.55835L3.52516 4.25835C1.84183 6.25835 0.833496 8.85002 0.833496 11.6667C0.833496 15.35 3.81683 18.3334 7.50016 18.3334C11.1835 18.3334 14.1668 15.35 14.1668 11.6667C14.1668 7.17502 12.0085 3.16668 8.75016 0.55835ZM7.2585 15.8334C5.77516 15.8334 4.57516 14.6667 4.57516 13.2167C4.57516 11.8667 5.45016 10.9167 6.91683 10.6167C8.39183 10.3167 9.91683 9.60835 10.7668 8.46668C11.0918 9.54168 11.2585 10.675 11.2585 11.8334C11.2585 14.0417 9.46683 15.8334 7.2585 15.8334Z"
                fill="url(#paint0_linear_1402_13075)"
              />
              <defs>
                <linearGradient
                  id="paint0_linear_1402_13075"
                  x1="14.1668"
                  y1="-2.91659"
                  x2="1.66683"
                  y2="25.8334"
                  gradientUnits="userSpaceOnUse"
                >
                  <stop offset="0.108087" stop-color="#FFF6C7" />
                  <stop offset="0.386292" stop-color="#EC8438" />
                  <stop offset="0.56006" stop-color="#DA1E28" />
                  <stop offset="0.771738" stop-color="#8C131A" />
                </linearGradient>
              </defs>
            </svg>