<svg width="142" height="34" viewBox="0 0 142 34" fill="none" xmlns="http://www.w3.org/2000/svg">
<path fill-rule="evenodd" clip-rule="evenodd" d="M14.6082 11.869L10.241 7.50218C10.1318 7.44759 10.1864 7.28384 10.3502 7.28384H14.3352C14.4444 7.28384 14.499 7.22925 14.499 7.12008V4.66376C14.499 4.55459 14.4444 4.5 14.3352 4.5H8.00283H5.38252C5.27334 4.5 5.21875 4.55459 5.21875 4.66376V7.28384V13.6157C5.21875 13.7249 5.27334 13.7795 5.38252 13.7795H7.83906C7.94824 13.7795 8.00283 13.7249 8.00283 13.6157V9.631C8.00283 9.52183 8.1666 9.41265 8.27578 9.52183L12.0971 13.3428C12.7521 13.9978 13.1343 14.9257 13.1343 15.8537V19.0196C13.1343 19.1288 13.1889 19.1834 13.298 19.1834H15.7546C15.8638 19.1834 15.9183 19.1288 15.9183 19.0196V15.1441C15.9183 13.8886 15.427 12.7423 14.6082 11.869Z" fill="#D3F13A"/>
<path d="M34.4791 11.7599C34.4791 13.9979 32.6776 15.7446 30.1665 15.7446H24.4346L24.38 8.10272H30.494C32.896 8.04813 34.4791 9.6311 34.4791 11.7599ZM39.9381 29.1726L33.1689 18.4739C36.2259 17.6551 38.3004 14.8167 38.3004 11.6507C38.3004 7.61145 35.025 4.55469 30.3303 4.55469H20.6133L20.6679 29.1726H24.4892V19.1835H29.293L35.5163 29.118L39.9381 29.1726Z" fill="#B6B4B4"/>
<path d="M49.5474 14.2162C52.3315 14.2162 53.9692 15.9629 53.9692 18.6922H44.6344C44.8527 15.9083 46.7634 14.2162 49.5474 14.2162ZM57.463 19.8384C57.463 14.5437 54.3513 11.1594 49.602 11.1594C44.5798 11.1594 41.1406 14.8712 41.1406 20.4389C41.1406 25.952 44.416 29.5 49.4383 29.5C53.4233 29.5 56.4258 27.262 57.2446 23.9323H54.0238C53.3687 25.5699 51.8402 26.4432 49.7112 26.4432C46.545 26.4432 44.5798 24.5328 44.5798 21.3122H57.463V19.7839V19.8384Z" fill="#B6B4B4"/>
<path d="M69.742 25.952H67.9951C66.412 25.952 65.7023 25.297 65.7023 23.714V14.6529H69.3598V11.487H65.7023V6.24683L62.0448 7.22936V11.487H58.7148V14.6529H62.0994V23.6049C62.0994 27.7533 63.5187 29.1726 67.3946 29.1726H69.8511L69.742 25.952Z" fill="#B6B4B4"/>
<path d="M88.1407 17.7097C88.1407 13.4521 85.9571 11.1595 81.9721 11.1595C79.3518 11.1595 77.7686 12.0328 76.5677 14.2708V4.55469H72.9102V29.118H76.5677V19.6748C76.5677 16.3996 78.26 14.38 80.9894 14.38C83.173 14.38 84.4832 15.8538 84.4832 18.0918V29.118H88.1407V17.7097Z" fill="#B6B4B4"/>
<path d="M92.5625 29.1724H96.22V11.4869H92.5625V29.1724ZM92.5625 8.70305H96.22V4.5H92.5625V8.70305Z" fill="#B6B4B4"/>
<path d="M116.035 17.7096C116.035 13.452 113.852 11.1594 109.867 11.1594C107.301 11.1594 105.663 12.0328 104.462 14.1616V11.4869H100.805V29.1179H104.462V19.6747C104.462 16.3996 106.154 14.3799 108.884 14.3799C111.068 14.3799 112.378 15.8537 112.378 18.0917V29.1179H116.035V17.7096Z" fill="#B6B4B4"/>
<path d="M136.78 29.1726L129.246 19.1289L136.343 11.487H131.484L124.169 19.8385V4.55469H120.566V29.118H124.224V24.5328L126.844 21.6944L132.412 29.118H136.78V29.1726Z" fill="#B6B4B4"/>
</svg>
