<svg width="20" height="20" viewBox="0 0 20 20" fill="none" xmlns="http://www.w3.org/2000/svg">
<path fill-rule="evenodd" clip-rule="evenodd" d="M4.79169 4.16667C4.79169 3.59137 5.25806 3.125 5.83335 3.125H14.1667C14.742 3.125 15.2084 3.59137 15.2084 4.16667V5C15.2084 5.34518 15.4882 5.625 15.8334 5.625C16.1785 5.625 16.4584 5.34518 16.4584 5V4.16667C16.4584 2.90101 15.4323 1.875 14.1667 1.875H5.83335C4.5677 1.875 3.54169 2.90101 3.54169 4.16667V15.8333C3.54169 17.099 4.5677 18.125 5.83335 18.125H14.1667C15.4323 18.125 16.4584 17.099 16.4584 15.8333V15C16.4584 14.6548 16.1785 14.375 15.8334 14.375C15.4882 14.375 15.2084 14.6548 15.2084 15V15.8333C15.2084 16.4086 14.742 16.875 14.1667 16.875H5.83335C5.25806 16.875 4.79169 16.4086 4.79169 15.8333V4.16667ZM13.7753 12.9419L16.2753 10.4419C16.5194 10.1979 16.5194 9.80214 16.2753 9.55806L13.7753 7.05806C13.5312 6.81398 13.1355 6.81398 12.8914 7.05806C12.6473 7.30214 12.6473 7.69786 12.8914 7.94194L14.3245 9.375H10C9.65484 9.375 9.37502 9.65482 9.37502 10C9.37502 10.3452 9.65484 10.625 10 10.625H14.3245L12.8914 12.0581C12.6473 12.3021 12.6473 12.6979 12.8914 12.9419C13.1355 13.186 13.5312 13.186 13.7753 12.9419Z" fill="#767676"/>
</svg>
