<svg width="56" height="56" viewBox="0 0 56 56" fill="none" xmlns="http://www.w3.org/2000/svg">
<rect opacity="0.5" width="56" height="56" rx="3.12871" fill="#82A8F8"/>
<path fill-rule="evenodd" clip-rule="evenodd" d="M32.1137 11.3699C31.5188 11.1224 30.8359 11.4041 30.5885 11.999L28.9707 15.8879C28.7232 16.4828 29.0048 17.1657 29.5997 17.4131C30.1947 17.6606 30.8775 17.379 31.125 16.7841L32.7428 12.8952C32.9903 12.3003 32.7086 11.6174 32.1137 11.3699ZM37.799 11.3798C37.2096 11.1196 36.5208 11.3865 36.2606 11.9759L30.8947 24.1305C30.5891 24.0429 30.2778 23.9687 29.9614 23.9088L24.1197 11.9355C23.8372 11.3564 23.1387 11.116 22.5596 11.3986C21.9805 11.6811 21.7401 12.3796 22.0227 12.9587L27.2869 23.7483C26.268 23.8161 25.2889 24.0293 24.3701 24.3672L18.1491 11.9253C17.861 11.349 17.1602 11.1154 16.5839 11.4036C16.0076 11.6917 15.774 12.3925 16.0621 12.9688L22.2838 25.4122C19.4012 27.284 17.4945 30.5318 17.4945 34.2249C17.4945 40.0239 22.1955 44.7249 27.9945 44.7249C33.7935 44.7249 38.4945 40.0239 38.4945 34.2249C38.4945 30.2595 36.2964 26.8075 33.0521 25.021L38.3951 12.9183C38.6554 12.3288 38.3885 11.64 37.799 11.3798ZM29.0369 26.1241C33.055 26.636 36.1612 30.0677 36.1612 34.2249C36.1612 38.7352 32.5048 42.3915 27.9945 42.3915C23.4842 42.3915 19.8279 38.7352 19.8279 34.2249C19.8279 29.7145 23.4842 26.0582 27.9945 26.0582C28.3477 26.0582 28.6956 26.0806 29.0369 26.1241Z" fill="#2C60F5"/>
</svg>
