<svg width="48" height="48" viewBox="0 0 48 48" fill="none" xmlns="http://www.w3.org/2000/svg">
<rect width="48" height="48" rx="4" fill="white"/>
<path fill-rule="evenodd" clip-rule="evenodd" d="M5.5 24C5.5 13.7827 13.7827 5.5 24 5.5C34.2173 5.5 42.5 13.7827 42.5 24C42.5 34.2173 34.2173 42.5 24 42.5C13.7827 42.5 5.5 34.2173 5.5 24ZM24 2.5C12.1259 2.5 2.5 12.1259 2.5 24C2.5 35.8741 12.1259 45.5 24 45.5C35.8741 45.5 45.5 35.8741 45.5 24C45.5 12.1259 35.8741 2.5 24 2.5ZM25.0235 13.8831C25.6392 14.4373 25.6891 15.3857 25.135 16.0015L25.115 16.0237C24.5608 16.6395 23.6123 16.6894 22.9966 16.1352C22.3808 15.581 22.3309 14.6326 22.8851 14.0168L22.9051 13.9946C23.4593 13.3788 24.4077 13.3289 25.0235 13.8831ZM24 21.5C24.8284 21.5 25.5 22.1716 25.5 23V33C25.5 33.8284 24.8284 34.5 24 34.5C23.1716 34.5 22.5 33.8284 22.5 33V23C22.5 22.1716 23.1716 21.5 24 21.5Z" fill="#EAB308"/>
</svg>
