<svg width="16" height="19" viewBox="0 0 16 19" fill="none" xmlns="http://www.w3.org/2000/svg">
<path fill-rule="evenodd" clip-rule="evenodd" d="M6.95898 0.833252C6.95898 0.488074 6.67916 0.208252 6.33398 0.208252C5.98881 0.208252 5.70898 0.488074 5.70898 0.833252V1.87492H3.00065C1.735 1.87492 0.708984 2.90093 0.708984 4.16659V16.6666C0.708984 17.9322 1.735 18.9583 3.00065 18.9583H13.0007C14.2663 18.9583 15.2923 17.9322 15.2923 16.6666V4.16659C15.2923 2.90093 14.2663 1.87492 13.0007 1.87492H10.084C9.73881 1.87492 9.45898 2.15474 9.45898 2.49992C9.45898 2.8451 9.73881 3.12492 10.084 3.12492H13.0007C13.5759 3.12492 14.0423 3.59129 14.0423 4.16659V16.6666C14.0423 17.2419 13.5759 17.7083 13.0007 17.7083H3.00065C2.42535 17.7083 1.95898 17.2419 1.95898 16.6666V4.16659C1.95898 3.59129 2.42535 3.12492 3.00065 3.12492H5.70898V4.16659C5.70898 4.51176 5.98881 4.79158 6.33398 4.79158C6.67916 4.79158 6.95898 4.51176 6.95898 4.16659V0.833252ZM4.66732 7.70825C4.32214 7.70825 4.04232 7.98807 4.04232 8.33325C4.04232 8.67843 4.32214 8.95825 4.66732 8.95825H6.33398C6.67916 8.95825 6.95898 8.67843 6.95898 8.33325C6.95898 7.98807 6.67916 7.70825 6.33398 7.70825H4.66732ZM4.66732 11.0416C4.32214 11.0416 4.04232 11.3214 4.04232 11.6666C4.04232 12.0118 4.32214 12.2916 4.66732 12.2916L11.334 12.2916C11.6792 12.2916 11.959 12.0118 11.959 11.6666C11.959 11.3214 11.6792 11.0416 11.334 11.0416H4.66732ZM4.04232 14.9999C4.04232 14.6547 4.32214 14.3749 4.66732 14.3749L8.00065 14.3749C8.34583 14.3749 8.62565 14.6547 8.62565 14.9999C8.62565 15.3451 8.34583 15.6249 8.00065 15.6249H4.66732C4.32214 15.6249 4.04232 15.3451 4.04232 14.9999Z" fill="#1B1B1B"/>
</svg>
