<svg width="136" height="110" viewBox="0 0 136 110" fill="none" xmlns="http://www.w3.org/2000/svg">
<path d="M24.7273 61.8669V86.176L68 109.391L111.273 86.176V61.8669L68 85.0821L24.7273 61.8669ZM68 0L0 36.4638L68 72.9275L123.636 43.088V85.0821H136V36.4638L68 0Z" fill="#1B1B1B"/>
<path fill-rule="evenodd" clip-rule="evenodd" d="M68.3094 31.8975L38.9469 31.8975C38.8017 31.8975 38.6598 31.8731 38.539 31.8273C38.4183 31.7814 38.3242 31.7163 38.2686 31.6401C38.2131 31.5639 38.1986 31.4801 38.2269 31.3992C38.2553 31.3183 38.3253 31.244 38.428 31.1857L51.8246 23.576C51.9622 23.4978 52.0395 23.3918 52.0395 23.2812C52.0395 23.1706 51.9622 23.0646 51.8246 22.9864L43.5348 18.2775C43.3971 18.1993 43.2105 18.1554 43.0159 18.1554C42.8212 18.1554 42.6346 18.1993 42.497 18.2775L12.4447 35.3483C12.3071 35.4265 12.2298 35.5325 12.2298 35.6431C12.2298 35.7536 12.3071 35.8596 12.4447 35.9378L42.4969 53.0086C42.6346 53.0868 42.8212 53.1307 43.0159 53.1307C43.2105 53.1307 43.3971 53.0868 43.5348 53.0086L51.8246 48.2997C51.9622 48.2215 52.0395 48.1155 52.0395 48.0049C52.0395 47.8944 51.9622 47.7883 51.8246 47.7102L38.428 40.1004C38.3253 40.0421 38.2553 39.9678 38.2269 39.8869C38.1986 39.806 38.2131 39.7222 38.2687 39.646C38.3242 39.5698 38.4183 39.5047 38.539 39.4589C38.6597 39.4131 38.8017 39.3886 38.9469 39.3887L64.7403 39.3886C69.2242 39.3897 73.5238 40.4021 76.6941 42.2032L87.4203 48.2961C87.4885 48.3348 87.5694 48.3655 87.6584 48.3865C87.7474 48.4074 87.8428 48.4182 87.9392 48.4182C88.0356 48.4182 88.131 48.4074 88.22 48.3864C88.3091 48.3655 88.39 48.3348 88.4581 48.2961L96.767 43.5764C96.8351 43.5377 96.8891 43.4917 96.926 43.4411C96.9629 43.3906 96.9819 43.3363 96.9819 43.2816C96.9819 43.2269 96.9629 43.1727 96.9261 43.1221C96.8892 43.0715 96.8351 43.0256 96.767 42.9868L83.5222 35.4633C81.5236 34.3301 79.1513 33.4318 76.5409 32.8199C73.9305 32.2081 71.1333 31.8946 68.3094 31.8975Z" fill="#D3FA3A"/>
</svg>
