<svg width="16" height="16" viewBox="0 0 16 16" fill="none" xmlns="http://www.w3.org/2000/svg">
<path fill-rule="evenodd" clip-rule="evenodd" d="M2.75 1.8125C2.23223 1.8125 1.8125 2.23223 1.8125 2.75V13.25C1.8125 13.7678 2.23223 14.1875 2.75 14.1875H2.9375V9.2C2.9375 8.64081 3.39081 8.1875 3.95 8.1875H12.05C12.6092 8.1875 13.0625 8.64081 13.0625 9.2V14.1875H13.25C13.7678 14.1875 14.1875 13.7678 14.1875 13.25V4.87132C14.1875 4.62268 14.0887 4.38422 13.9129 4.20841L11.7916 2.08709C11.7236 2.01908 11.6462 1.96261 11.5625 1.91891V5.3C11.5625 5.85919 11.1092 6.3125 10.55 6.3125H5.45C4.89081 6.3125 4.4375 5.85919 4.4375 5.3V1.8125H2.75ZM13.0625 15.3125H2.9375H2.75C1.61091 15.3125 0.6875 14.3891 0.6875 13.25V2.75C0.6875 1.61091 1.61091 0.6875 2.75 0.6875H5.45H10.55H11.1287C11.6757 0.6875 12.2003 0.904798 12.5871 1.29159L14.7084 3.41291C15.0952 3.79971 15.3125 4.32431 15.3125 4.87132V13.25C15.3125 14.3891 14.3891 15.3125 13.25 15.3125H13.0625ZM11.9375 14.1875V9.3125H4.0625V14.1875H11.9375ZM5.5625 1.8125H10.4375V5.1875H5.5625V1.8125Z" fill="black"/>
</svg>
