<svg width="20" height="20" viewBox="0 0 20 20" fill="none" xmlns="http://www.w3.org/2000/svg">
<path fill-rule="evenodd" clip-rule="evenodd" d="M2.70837 8.83325C2.70837 5.45051 5.45063 2.70825 8.83337 2.70825C12.2161 2.70825 14.9584 5.45051 14.9584 8.83325C14.9584 10.5219 14.2761 12.0496 13.1702 13.1585C12.0603 14.2713 10.5279 14.9583 8.83337 14.9583C5.45063 14.9583 2.70837 12.216 2.70837 8.83325ZM8.83337 0.958252C4.48413 0.958252 0.958374 4.48401 0.958374 8.83325C0.958374 13.1825 4.48413 16.7083 8.83337 16.7083C10.6924 16.7083 12.402 16.0632 13.7488 14.9861L17.548 18.7853C17.8897 19.127 18.4437 19.127 18.7854 18.7853C19.1271 18.4436 19.1271 17.8896 18.7854 17.5479L14.9862 13.7487C16.0634 12.4019 16.7084 10.6923 16.7084 8.83325C16.7084 4.48401 13.1826 0.958252 8.83337 0.958252Z" fill="#838383"/>
</svg>
