<svg width="16" height="16" viewBox="0 0 16 16" fill="none" xmlns="http://www.w3.org/2000/svg">
<path fill-rule="evenodd" clip-rule="evenodd" d="M0.939613 0.19878C1.1566 -0.018205 1.5084 -0.018205 1.72539 0.19878L2.46622 0.939613C2.6832 1.1566 2.6832 1.5084 2.46622 1.72539C2.24923 1.94237 1.89743 1.94237 1.68045 1.72539L0.939613 0.984552C0.722628 0.767567 0.722628 0.415765 0.939613 0.19878ZM15.0604 0.19878C14.8434 -0.018205 14.4916 -0.018205 14.2746 0.19878L13.5338 0.939613C13.3168 1.1566 13.3168 1.5084 13.5338 1.72539C13.7508 1.94237 14.1026 1.94237 14.3196 1.72539L15.0604 0.984552C15.2774 0.767567 15.2774 0.415765 15.0604 0.19878ZM14.2746 11.3562C14.4916 11.5732 14.8434 11.5732 15.0604 11.3562C15.2774 11.1392 15.2774 10.7874 15.0604 10.5704L14.3196 9.82961C14.1026 9.61263 13.7508 9.61263 13.5338 9.82961C13.3168 10.0466 13.3168 10.3984 13.5338 10.6154L14.2746 11.3562ZM0.939613 11.3562C1.1566 11.5732 1.5084 11.5732 1.72539 11.3562L2.46622 10.6154C2.6832 10.3984 2.6832 10.0466 2.46622 9.82961C2.24923 9.61263 1.89743 9.61263 1.68045 9.82961L0.939613 10.5704C0.722628 10.7874 0.722628 11.1392 0.939613 11.3562ZM5.7775 11.8894C5.47064 11.8894 5.22187 12.1381 5.22187 12.445C5.22187 12.7519 5.47064 13.0006 5.7775 13.0006H10.2225C10.5294 13.0006 10.7781 12.7519 10.7781 12.445C10.7781 12.1381 10.5294 11.8894 10.2225 11.8894H5.7775ZM5.96271 14.6675C5.96271 14.3606 6.21147 14.1119 6.51833 14.1119H9.48167C9.78853 14.1119 10.0373 14.3606 10.0373 14.6675C10.0373 14.9744 9.78853 15.2231 9.48167 15.2231H6.51833C6.21147 15.2231 5.96271 14.9744 5.96271 14.6675ZM4.11044 5.02793C4.09476 4.03173 4.41691 3.27516 5.01592 2.75785C5.62758 2.22961 6.60082 1.88812 7.99988 1.88812C9.39894 1.88812 10.3722 2.22961 10.9838 2.75785C11.5829 3.27516 11.905 4.03173 11.8893 5.02793C11.8744 5.97548 11.5865 6.59089 10.9407 7.23673L10.9092 7.2682C10.5639 7.61343 10.2292 7.94788 10.0033 8.39975C9.82459 8.75719 9.72523 9.16001 9.68628 9.66687H6.31356C6.27468 9.16003 6.17535 8.75721 5.99662 8.39975C5.77065 7.9478 5.4359 7.6133 5.09037 7.26803L5.05899 7.23667C4.41314 6.59091 4.12535 5.97555 4.11044 5.02793ZM7.99988 0.776875C6.4355 0.776875 5.16846 1.15781 4.2896 1.91682C3.39808 2.68675 2.97945 3.78228 2.99933 5.04541C3.01908 6.30086 3.43724 7.18659 4.27328 8.0225C4.65766 8.40682 4.86508 8.6215 5.00269 8.89671C5.13357 9.15848 5.22181 9.52399 5.22176 10.2225C5.22175 10.3698 5.28028 10.5112 5.38448 10.6154C5.48868 10.7196 5.63001 10.7781 5.77738 10.7781H10.2224C10.5292 10.7781 10.778 10.5294 10.778 10.2225C10.7781 9.52407 10.8663 9.15853 10.9972 8.89671C11.1349 8.62146 11.3423 8.40677 11.7265 8.02244C12.5622 7.18661 12.9807 6.30093 13.0004 5.04541C13.0203 3.78228 12.6017 2.68675 11.7102 1.91682C10.8313 1.15781 9.56427 0.776875 7.99988 0.776875Z" fill="#3B3B3B"/>
</svg>
