<svg width="36" height="36" viewBox="0 0 36 36" fill="none" xmlns="http://www.w3.org/2000/svg">
<circle r="18" transform="matrix(-1 0 0 1 18 18)" fill="#1B1B1B"/>
<path fill-rule="evenodd" clip-rule="evenodd" d="M23.5303 16.9697C23.8232 17.2626 23.8232 17.7374 23.5303 18.0303L20.0303 21.5303C19.7374 21.8232 19.2626 21.8232 18.9697 21.5303C18.6768 21.2374 18.6768 20.7626 18.9697 20.4697L21.9393 17.5L18.9697 14.5303C18.6768 14.2374 18.6768 13.7626 18.9697 13.4697C19.2626 13.1768 19.7374 13.1768 20.0303 13.4697L23.5303 16.9697ZM14.0303 13.4697L17.5303 16.9697C17.8232 17.2626 17.8232 17.7374 17.5303 18.0303L14.0303 21.5303C13.7374 21.8232 13.2626 21.8232 12.9697 21.5303C12.6768 21.2374 12.6768 20.7626 12.9697 20.4697L15.9393 17.5L12.9697 14.5303C12.6768 14.2374 12.6768 13.7626 12.9697 13.4697C13.2626 13.1768 13.7374 13.1768 14.0303 13.4697Z" fill="#F9F9F9"/>
</svg>
