<svg width="18" height="18" viewBox="0 0 18 18" fill="none" xmlns="http://www.w3.org/2000/svg">
<path fill-rule="evenodd" clip-rule="evenodd" d="M1.5 4.20833C1.15482 4.20833 0.875 4.48816 0.875 4.83333C0.875 5.17851 1.15482 5.45833 1.5 5.45833H16.5C16.8452 5.45833 17.125 5.17851 17.125 4.83333C17.125 4.48816 16.8452 4.20833 16.5 4.20833H12.9583V2C12.9583 1.37868 12.4547 0.875 11.8333 0.875H6.16667C5.54535 0.875 5.04167 1.37868 5.04167 2V4.20833H1.5ZM11.7083 2.125V4.20833H6.29167V2.125H11.7083ZM3.79167 8.16667C3.79167 7.82149 3.51184 7.54167 3.16667 7.54167C2.82149 7.54167 2.54167 7.82149 2.54167 8.16667V16C2.54167 16.6213 3.04535 17.125 3.66667 17.125H14.3333C14.9547 17.125 15.4583 16.6213 15.4583 16V8.16667C15.4583 7.82149 15.1785 7.54167 14.8333 7.54167C14.4882 7.54167 14.2083 7.82149 14.2083 8.16667V15.875H3.79167V8.16667ZM7.95833 8.16667C7.95833 7.82149 7.67851 7.54167 7.33333 7.54167C6.98816 7.54167 6.70833 7.82149 6.70833 8.16667V13.1667C6.70833 13.5118 6.98816 13.7917 7.33333 13.7917C7.67851 13.7917 7.95833 13.5118 7.95833 13.1667V8.16667ZM10.6667 7.54167C11.0118 7.54167 11.2917 7.82149 11.2917 8.16667V13.1667C11.2917 13.5118 11.0118 13.7917 10.6667 13.7917C10.3215 13.7917 10.0417 13.5118 10.0417 13.1667V8.16667C10.0417 7.82149 10.3215 7.54167 10.6667 7.54167Z" fill="white"/>
</svg>
