<svg width="24" height="34" viewBox="0 0 24 34" fill="none" xmlns="http://www.w3.org/2000/svg">
<path d="M6.99968 31.9987C6.99968 32.9154 7.74968 33.6654 8.66634 33.6654H15.333C16.2497 33.6654 16.9997 32.9154 16.9997 31.9987V30.332H6.99968V31.9987ZM11.9997 0.332031C5.56634 0.332031 0.333008 5.56536 0.333008 11.9987C0.333008 15.9654 2.31634 19.4487 5.33301 21.5654V25.332C5.33301 26.2487 6.08301 26.9987 6.99968 26.9987H16.9997C17.9163 26.9987 18.6663 26.2487 18.6663 25.332V21.5654C21.683 19.4487 23.6663 15.9654 23.6663 11.9987C23.6663 5.56536 18.433 0.332031 11.9997 0.332031ZM16.7497 18.832L15.333 19.832V23.6654H8.66634V19.832L7.24967 18.832C4.99967 17.2654 3.66634 14.7154 3.66634 11.9987C3.66634 7.3987 7.39968 3.66536 11.9997 3.66536C16.5997 3.66536 20.333 7.3987 20.333 11.9987C20.333 14.7154 18.9997 17.2654 16.7497 18.832Z" fill="#1B1B1B"/>
</svg>
